<svg width="39" height="30" viewBox="0 0 39 30" fill="none" xmlns="http://www.w3.org/2000/svg">
<g id="Group">
<path id="Vector" d="M38.0752 4.01647L36.549 2.49023L22.4113 16.628C20.644 18.3952 17.6719 18.3952 15.9047 16.628L1.76696 2.57056L0.240723 4.09679L10.7637 14.6198L0.240723 25.1427L1.76696 26.669L12.2899 16.146L14.3785 18.2345C15.6637 19.5198 17.3506 20.2427 19.1178 20.2427C20.885 20.2427 22.5719 19.5198 23.8572 18.2345L25.9457 16.146L36.4687 26.669L37.9949 25.1427L27.4719 14.6198L38.0752 4.01647Z" fill="#137210"/>
<path id="Vector_2" d="M35.1033 29.4001H3.37378C1.52623 29.4001 0 27.8738 0 26.0263V3.37378C0 1.52623 1.52623 0 3.37378 0H35.1033C36.9509 0 38.4771 1.52623 38.4771 3.37378V26.0263C38.4771 27.8738 36.9509 29.4001 35.1033 29.4001ZM3.29345 2.16886C2.65082 2.16886 2.16886 2.65082 2.16886 3.29345V25.9459C2.16886 26.5886 2.65082 27.0705 3.29345 27.0705H35.023C35.6656 27.0705 36.1476 26.5886 36.1476 25.9459V3.29345C36.1476 2.65082 35.6656 2.16886 35.023 2.16886H3.29345Z" fill="#137210"/>
</g>
</svg>
